<svg width="512" height="438" viewBox="0 0 512 438" fill="coral" xmlns="http://www.w3.org/2000/svg">
<path d="M225.8 425.378L223.3 423.078L48.1 260.378C17.4 231.878 0 191.878 0 149.978V146.678C0 76.2783 50 15.8783 119.2 2.67833C158.6 -4.92167 198.9 4.17833 231 26.7783C240 33.1783 248.4 40.5783 256 49.0783C260.2 44.2783 264.7 39.8783 269.5 35.7783C273.2 32.5783 277 29.5783 281 26.7783C313.1 4.17833 353.4 -4.92166 392.8 2.57834C462 15.7783 512 76.2783 512 146.678V149.978C512 191.878 494.6 231.878 463.9 260.378L288.7 423.078L286.2 425.378C278 432.978 267.2 437.278 256 437.278C244.8 437.278 234 433.078 225.8 425.378ZM239.1 102.178C238.7 101.878 238.4 101.478 238.1 101.078L220.3 81.0783L220.2 80.9783C197.1 55.0783 162.2 43.2783 128.2 49.7783C81.6 58.6783 48 99.2783 48 146.678V149.978C48 178.478 59.9 205.778 80.8 225.178L256 387.878L431.2 225.178C452.1 205.778 464 178.478 464 149.978V146.678C464 99.3783 430.4 58.6783 383.9 49.7783C349.9 43.2783 314.9 55.1783 291.9 80.9783C291.9 80.9783 291.9 80.9783 291.8 81.0783C291.7 81.1783 291.8 81.0783 291.7 81.1783L273.9 101.178C273.6 101.578 273.2 101.878 272.9 102.278C268.4 106.778 262.3 109.278 256 109.278C249.7 109.278 243.6 106.778 239.1 102.278V102.178Z" fill="#FF7F50"/>
</svg>
